<svg xmlns="http://www.w3.org/2000/svg" viewBox="0 0 384 384" role="img" aria-labelledby="kuna-mark-title">
  <title id="kuna-mark-title">Kuna: an eel coiled around a target</title>
  <g transform="translate(0,384) scale(0.1,-0.1)" fill="#141110">
    <path d="M1915 3665 c-666 -108 -1197 -539 -1430 -1160 -126 -338 -147 -665 -64 -1005 53 -215 133 -395 258 -581 176 -263 402 -461 686 -600 424 -208 875 -217 1280 -25 390 184 662 539 746 970 27 137 27 335 1 471 -52 262 -161 468 -346 650 -116 115 -210 183 -352 253 -199 100 -393 146 -609 145 -283 0 -515 -87 -697 -261 -160 -153 -249 -320 -279 -524 -13 -93 -7 -246 15 -323 l13 -50 1 110 c0 64 7 139 16 180 71 308 292 534 601 616 120 31 294 36 415 11 275 -57 502 -225 625 -462 62 -122 86 -211 92 -356 6 -138 -10 -240 -58 -364 -80 -209 -270 -399 -479 -479 -126 -49 -225 -64 -374 -58 -146 5 -250 30 -382 92 -301 139 -537 440 -610 779 -24 110 -29 304 -10 416 61 374 274 668 601 830 167 83 394 129 560 115 l80 -7 60 -58 c149 -143 354 -185 603 -123 94 23 128 26 282 27 161 1 178 3 217 23 50 27 80 64 89 108 16 87 -29 145 -181 235 -57 34 -134 89 -172 122 -119 106 -216 159 -396 217 -183 58 -273 72 -502 76 -152 3 -235 0 -300 -10z m19 -184 c17 -11 44 -33 59 -49 l28 -29 -31 -7 c-27 -5 -39 0 -72 28 -21 19 -55 37 -74 40 -27 6 -34 12 -34 30 0 12 3 25 6 29 8 7 78 -18 118 -42z m-46 -61 c17 -11 32 -24 32 -29 0 -13 -124 -52 -128 -41 -2 5 2 27 8 49 8 32 15 41 33 41 12 0 37 -9 55 -20z m-233 -27 c49 -25 57 -34 44 -49 -9 -11 -18 -10 -50 6 -21 11 -50 20 -64 20 -20 0 -25 5 -25 26 0 24 2 25 33 19 17 -4 46 -14 62 -22z m-15 -65 l35 -21 -60 -28 c-33 -15 -64 -28 -68 -28 -10 -1 3 70 16 87 14 18 37 15 77 -10z m1261 -17 c23 -23 29 -38 29 -71 0 -56 -42 -100 -95 -100 -47 0 -71 13 -90 50 -38 74 8 149 93 150 24 0 42 -8 63 -29z m-1510 -27 c63 -18 72 -25 64 -47 -6 -14 -10 -14 -40 -1 -19 8 -53 14 -75 14 -36 0 -40 2 -40 25 0 30 14 31 91 9z m6 -69 c20 -8 34 -17 32 -19 -2 -1 -32 -22 -66 -45 l-63 -42 0 55 c0 44 4 55 18 59 31 8 42 7 79 -8z m-207 -94 c14 -4 26 -15 28 -27 3 -18 -3 -20 -85 -18 -87 1 -88 1 -91 27 -3 27 -3 27 60 26 35 -1 74 -4 88 -8z m-1 -77 c3 -2 -22 -32 -55 -65 l-59 -60 -7 33 c-16 78 -14 92 12 99 24 8 100 3 109 -7z m-189 -159 c0 -23 -4 -25 -45 -25 -25 0 -61 -7 -80 -14 -32 -14 -36 -13 -45 4 -25 48 -11 55 113 58 55 2 57 1 57 -23z m-10 -51 c0 -10 -84 -143 -91 -144 -6 0 -44 99 -44 115 0 5 18 15 40 21 44 14 95 18 95 8z m-160 -199 c0 -18 -5 -25 -19 -25 -10 0 -44 -13 -74 -28 l-57 -29 -15 23 c-8 13 -15 25 -15 27 0 6 70 35 110 46 59 16 70 14 70 -14z m-27 -129 c-15 -42 -31 -76 -34 -76 -4 0 -21 23 -39 50 -31 49 -32 51 -14 65 19 15 106 45 112 40 2 -2 -9 -37 -25 -79z m-95 -151 c1 -15 -8 -25 -35 -37 -21 -10 -51 -29 -66 -44 l-29 -27 -20 21 c-11 11 -17 25 -14 31 11 17 130 81 146 78 8 -1 16 -11 18 -22z m1 -132 c-6 -43 -14 -80 -16 -82 -2 -3 -23 15 -48 39 -36 35 -42 47 -34 62 9 17 100 70 107 63 2 -2 -2 -39 -9 -82z m-56 -153 c4 -15 -11 -36 -54 -80 -51 -53 -62 -59 -79 -50 -11 6 -20 15 -20 19 0 11 128 131 139 131 5 0 11 -9 14 -20z m21 -136 c4 -42 5 -78 3 -81 -5 -4 -107 56 -107 63 0 8 82 94 90 94 4 0 10 -34 14 -76z m-8 -159 c5 -19 -1 -33 -26 -61 -17 -20 -38 -51 -47 -69 -15 -31 -18 -32 -44 -23 -16 5 -29 13 -29 16 0 23 113 162 131 162 5 0 11 -11 15 -25z m2507 -150 c-1 -123 -30 -234 -103 -381 -172 -350 -515 -619 -915 -715 -82 -19 -259 -27 -269 -11 -3 5 32 17 77 26 215 46 473 158 642 278 112 80 275 251 344 361 101 163 170 361 187 532 l7 80 15 -35 c11 -24 16 -66 15 -135z m-2460 13 c14 -45 25 -83 24 -84 -1 -1 -32 9 -69 23 l-67 25 16 32 c20 38 55 86 63 86 3 0 18 -37 33 -82z m2507 -448 l20 -40 -32 -20 c-54 -33 -59 -26 -35 40 12 33 23 60 24 60 2 0 12 -18 23 -40z m40 -86 c0 -8 -21 -24 -46 -34 -54 -24 -64 -25 -64 -6 0 14 89 65 103 58 4 -2 7 -10 7 -18z m-139 -187 c-9 -9 -83 -28 -89 -23 -1 2 14 32 35 66 l37 63 13 -49 c7 -27 8 -53 4 -57z m29 -49 c0 -8 -94 -38 -117 -38 -7 0 -13 9 -13 20 0 14 7 20 23 21 12 0 38 6 57 13 33 13 49 7 50 -16z m-188 -160 c-14 -14 -75 -20 -92 -9 -12 9 -6 19 35 61 l50 51 8 -47 c4 -26 4 -51 -1 -56z m12 -51 c5 -22 -29 -31 -90 -24 -51 5 -57 9 -49 29 4 11 22 14 70 14 52 -1 65 -4 69 -19z m-208 -58 c-3 -17 -6 -38 -6 -45 0 -24 -34 -34 -74 -23 -21 6 -36 14 -34 20 4 10 99 78 112 78 5 1 6 -13 2 -30z m-63 -92 c34 -9 47 -17 47 -29 0 -13 -8 -18 -29 -18 -29 0 -90 17 -104 30 -14 12 4 42 22 35 9 -4 37 -12 64 -18z m-163 -10 c0 -2 -7 -24 -16 -50 -13 -38 -20 -47 -39 -47 -13 0 -37 11 -52 24 l-28 24 25 10 c14 5 41 17 60 25 36 16 50 20 50 14z m-73 -116 c20 -6 27 -13 25 -27 -2 -10 -5 -21 -7 -23 -8 -7 -65 19 -115 51 l-51 33 28 11 c24 10 32 8 59 -13 18 -13 45 -28 61 -32z M2796 3275 c-20 -20 -21 -59 -2 -74 21 -18 66 -9 82 14 30 46 -40 99 -80 60z"/>
  </g>
  <circle cx="203" cy="208.5" r="47" fill="#B80D1E"/>
</svg>
